<?xml version="1.0" encoding="utf-8"?><svg xmlns="http://www.w3.org/2000/svg" xmlns:xlink="http://www.w3.org/1999/xlink"><symbol viewBox="0 0 36 35" id="agreement-blue" xmlns="http://www.w3.org/2000/svg"><path d="M29.6665 5.83329V23.3333H12.1665V5.83329H29.6665ZM29.6665 2.91663H12.1665C10.5623 2.91663 9.24984 4.22913 9.24984 5.83329V23.3333C9.24984 24.9375 10.5623 26.25 12.1665 26.25H29.6665C31.2707 26.25 32.5832 24.9375 32.5832 23.3333V5.83329C32.5832 4.22913 31.2707 2.91663 29.6665 2.91663ZM18.6853 20.4166L13.6248 15.3125L15.6665 13.2562L18.6853 16.2895L26.1665 8.74996L28.2082 10.8062L18.6853 20.4166ZM6.33317 8.74996H3.4165V29.1666C3.4165 30.7708 4.729 32.0833 6.33317 32.0833H26.7498V29.1666H6.33317V8.74996Z"/></symbol><symbol viewBox="0 0 36 35" id="agreement-white" xmlns="http://www.w3.org/2000/svg"><path d="M29.6665 5.83329V23.3333H12.1665V5.83329H29.6665ZM29.6665 2.91663H12.1665C10.5623 2.91663 9.24984 4.22913 9.24984 5.83329V23.3333C9.24984 24.9375 10.5623 26.25 12.1665 26.25H29.6665C31.2707 26.25 32.5832 24.9375 32.5832 23.3333V5.83329C32.5832 4.22913 31.2707 2.91663 29.6665 2.91663ZM18.6853 20.4166L13.6248 15.3125L15.6665 13.2562L18.6853 16.2895L26.1665 8.74996L28.2082 10.8062L18.6853 20.4166ZM6.33317 8.74996H3.4165V29.1666C3.4165 30.7708 4.729 32.0833 6.33317 32.0833H26.7498V29.1666H6.33317V8.74996Z"/></symbol><symbol viewBox="0 0 21 20" id="arrow-left" xmlns="http://www.w3.org/2000/svg"><path d="M14.3055 18.3333L5.97217 9.99996L14.3055 1.66663L15.7847 3.14579L8.9305 9.99996L15.7847 16.8541L14.3055 18.3333Z"/></symbol><symbol viewBox="0 0 21 21" id="arrow-left-blue" xmlns="http://www.w3.org/2000/svg"><path d="M14.3055 18.8334L5.97217 10.5L14.3055 2.16669L15.7847 3.64585L8.9305 10.5L15.7847 17.3542L14.3055 18.8334Z"/></symbol><symbol viewBox="0 0 20 20" id="arrow-right" xmlns="http://www.w3.org/2000/svg"><path d="M6.68742 18.3333L5.20825 16.8541L12.0624 9.99996L5.20825 3.14579L6.68742 1.66663L15.0208 9.99996L6.68742 18.3333Z"/></symbol><symbol viewBox="0 0 20 21" id="arrow-right-blue" xmlns="http://www.w3.org/2000/svg"><path d="M6.68742 18.8334L5.20825 17.3542L12.0624 10.5L5.20825 3.64585L6.68742 2.16669L15.0208 10.5L6.68742 18.8334Z"/></symbol><symbol viewBox="0 0 24 24" id="close" xmlns="http://www.w3.org/2000/svg"><path d="M6.4 19L5 17.6L10.6 12L5 6.4L6.4 5L12 10.6L17.6 5L19 6.4L13.4 12L19 17.6L17.6 19L12 13.4L6.4 19Z"/></symbol><symbol viewBox="0 0 24 24" id="close-icon" xmlns="http://www.w3.org/2000/svg"><path d="M6.4 19L5 17.6L10.6 12L5 6.4L6.4 5L12 10.6L17.6 5L19 6.4L13.4 12L19 17.6L17.6 19L12 13.4L6.4 19Z"/></symbol><symbol viewBox="0 0 55 56" id="feather" xmlns="http://www.w3.org/2000/svg"><g opacity="0.1"><path d="M50.5634 2.64844L39.5526 5.85068L44.0106 2.8332C41.1962 3.46914 37.6405 4.71309 33.1718 6.7208L25.8778 14.3252L28.4667 9.01318C25.9638 10.4054 23.3104 12.2305 20.7538 14.3682L19.0565 21.2754L18.6913 16.1621C16.1669 18.4824 13.7929 21.0605 11.8271 23.7783C9.76133 26.625 8.14678 29.6328 7.33789 32.6299L4.31719 30.6104C4.58789 33.1562 5.42471 35.3691 6.79756 37.3994L3.18604 36.293C4.00674 38.8174 5.34844 40.4502 7.61719 41.7715C6.34639 45.3486 5.7502 49.0869 5.10996 52.8145L7.08652 53.1475C9.37891 30.2988 25.5556 15.7324 40.1757 9.27852L40.9169 11.1455C27.8437 17 17.6815 26.8828 12.3642 41.127C14.3085 41.1377 16.2099 40.9014 17.9716 40.4502L18.4979 33.9082L19.9052 39.8701C21.0761 39.4404 22.1503 38.9248 23.1063 38.3232L20.8827 33.6504L24.4062 37.3887C25.2655 36.7012 25.9745 35.9277 26.5116 35.0791C29.7772 29.9766 33.1933 24.9062 39.9179 20.6631L35.0087 18.9229L42.539 19.1484C43.7636 18.5254 45.0526 17.7627 46.0302 17.043L40.6913 16.6133L48.7157 14.7227C49.3388 14.0996 49.9188 13.4443 50.4452 12.7891C52.3036 10.4322 53.5604 7.97871 53.2597 5.74756C53.12 4.63145 52.454 3.58193 51.369 2.99434C51.1005 2.85469 50.8105 2.73115 50.5634 2.64844Z"/></g></symbol><symbol viewBox="0 0 32 33" id="footer-email" xmlns="http://www.w3.org/2000/svg"><path d="M5.33317 27.1666C4.59984 27.1666 3.97184 26.9053 3.44917 26.3826C2.92651 25.8599 2.66562 25.2324 2.66651 24.4999V8.49992C2.66651 7.76659 2.92784 7.13859 3.45051 6.61592C3.97317 6.09325 4.60073 5.83237 5.33317 5.83325H26.6665C27.3998 5.83325 28.0278 6.09459 28.5505 6.61725C29.0732 7.13992 29.3341 7.76748 29.3332 8.49992V24.4999C29.3332 25.2333 29.0718 25.8613 28.5492 26.3839C28.0265 26.9066 27.399 27.1675 26.6665 27.1666H5.33317ZM15.9998 17.8333L5.33317 11.1666V24.4999H26.6665V11.1666L15.9998 17.8333ZM15.9998 15.1666L26.6665 8.49992H5.33317L15.9998 15.1666ZM5.33317 11.1666V8.49992V24.4999V11.1666Z"/></symbol><symbol viewBox="0 0 32 32" id="footer-map" xmlns="http://www.w3.org/2000/svg"><path d="M15.9998 8.66675C16.8839 8.66675 17.7317 9.01794 18.3569 9.64306C18.982 10.2682 19.3332 11.116 19.3332 12.0001C19.3332 12.4378 19.247 12.8713 19.0794 13.2757C18.9119 13.6801 18.6664 14.0476 18.3569 14.3571C18.0473 14.6666 17.6799 14.9122 17.2754 15.0797C16.871 15.2472 16.4376 15.3334 15.9998 15.3334C15.1158 15.3334 14.2679 14.9822 13.6428 14.3571C13.0177 13.732 12.6665 12.8841 12.6665 12.0001C12.6665 11.116 13.0177 10.2682 13.6428 9.64306C14.2679 9.01794 15.1158 8.66675 15.9998 8.66675ZM15.9998 2.66675C18.4752 2.66675 20.8492 3.65008 22.5995 5.40042C24.3498 7.15076 25.3332 9.52473 25.3332 12.0001C25.3332 19.0001 15.9998 29.3334 15.9998 29.3334C15.9998 29.3334 6.6665 19.0001 6.6665 12.0001C6.6665 9.52473 7.64983 7.15076 9.40017 5.40042C11.1505 3.65008 13.5245 2.66675 15.9998 2.66675ZM15.9998 5.33341C14.2317 5.33341 12.536 6.03579 11.2858 7.28604C10.0355 8.53628 9.33317 10.232 9.33317 12.0001C9.33317 13.3334 9.33317 16.0001 15.9998 24.9467C22.6665 16.0001 22.6665 13.3334 22.6665 12.0001C22.6665 10.232 21.9641 8.53628 20.7139 7.28604C19.4636 6.03579 17.7679 5.33341 15.9998 5.33341Z"/></symbol><symbol viewBox="0 0 32 32" id="footer-phone" xmlns="http://www.w3.org/2000/svg"><path d="M21.3332 1.33325H10.6665C8.45317 1.33325 6.6665 3.11992 6.6665 5.33325V26.6666C6.6665 28.8799 8.45317 30.6666 10.6665 30.6666H21.3332C23.5465 30.6666 25.3332 28.8799 25.3332 26.6666V5.33325C25.3332 3.11992 23.5465 1.33325 21.3332 1.33325ZM22.6665 23.9999H9.33317V5.33325H22.6665V23.9999ZM18.6665 27.9999H13.3332V26.6666H18.6665V27.9999Z"/></symbol><symbol viewBox="0 0 20 20" id="header-email" xmlns="http://www.w3.org/2000/svg"><path d="M3.33317 16.6666C2.87484 16.6666 2.48234 16.5033 2.15567 16.1766C1.82901 15.8499 1.66595 15.4577 1.66651 14.9999V4.99992C1.66651 4.54159 1.82984 4.14909 2.15651 3.82242C2.48317 3.49575 2.87539 3.3327 3.33317 3.33325H16.6665C17.1248 3.33325 17.5173 3.49659 17.844 3.82325C18.1707 4.14992 18.3337 4.54214 18.3332 4.99992V14.9999C18.3332 15.4583 18.1698 15.8508 17.8432 16.1774C17.5165 16.5041 17.1243 16.6671 16.6665 16.6666H3.33317ZM9.99984 10.8333L3.33317 6.66659V14.9999H16.6665V6.66659L9.99984 10.8333ZM9.99984 9.16659L16.6665 4.99992H3.33317L9.99984 9.16659ZM3.33317 6.66659V4.99992V14.9999V6.66659Z"/></symbol><symbol viewBox="0 0 20 20" id="header-phone" xmlns="http://www.w3.org/2000/svg"><path d="M13.3332 0.833252H6.6665C5.28317 0.833252 4.1665 1.94992 4.1665 3.33325V16.6666C4.1665 18.0499 5.28317 19.1666 6.6665 19.1666H13.3332C14.7165 19.1666 15.8332 18.0499 15.8332 16.6666V3.33325C15.8332 1.94992 14.7165 0.833252 13.3332 0.833252ZM14.1665 14.9999H5.83317V3.33325H14.1665V14.9999ZM11.6665 17.4999H8.33317V16.6666H11.6665V17.4999Z"/></symbol><symbol viewBox="0 0 24 25" id="heart" xmlns="http://www.w3.org/2000/svg"><path fill-rule="evenodd" clip-rule="evenodd" d="M12.6924 7.58373C12.3055 7.95505 11.6945 7.95505 11.3076 7.58373L10.6152 6.91927C9.80477 6.14154 8.70994 5.66667 7.5 5.66667C5.01472 5.66667 3 7.68139 3 10.1667C3 12.5493 4.28979 14.5167 6.15176 16.1332C8.01532 17.7511 10.2434 18.8241 11.5746 19.3717C11.853 19.4862 12.147 19.4862 12.4254 19.3717C13.7566 18.8241 15.9847 17.7511 17.8482 16.1332C19.7102 14.5167 21 12.5493 21 10.1667C21 7.68139 18.9853 5.66667 16.5 5.66667C15.2901 5.66667 14.1952 6.14154 13.3848 6.91927L12.6924 7.58373ZM12 5.47624C10.8321 4.35548 9.24649 3.66667 7.5 3.66667C3.91015 3.66667 1 6.57682 1 10.1667C1 16.5349 7.97034 20.0517 10.8138 21.2214C11.5796 21.5364 12.4204 21.5364 13.1862 21.2214C16.0297 20.0517 23 16.5349 23 10.1667C23 6.57682 20.0899 3.66667 16.5 3.66667C14.7535 3.66667 13.1679 4.35548 12 5.47624Z"/></symbol><symbol viewBox="0 0 24 24" id="heart-line" xmlns="http://www.w3.org/2000/svg"><path d="M12.001 4.52853C14.35 2.42 17.98 2.49 20.2426 4.75736C22.5053 7.02472 22.583 10.637 20.4786 12.993L11.9999 21.485L3.52138 12.993C1.41705 10.637 1.49571 7.01901 3.75736 4.75736C6.02157 2.49315 9.64519 2.41687 12.001 4.52853ZM18.827 6.1701C17.3279 4.66794 14.9076 4.60701 13.337 6.01687L12.0019 7.21524L10.6661 6.01781C9.09098 4.60597 6.67506 4.66808 5.17157 6.17157C3.68183 7.66131 3.60704 10.0473 4.97993 11.6232L11.9999 18.6543L19.0201 11.6232C20.3935 10.0467 20.319 7.66525 18.827 6.1701Z"/></symbol><symbol viewBox="0 0 24 24" id="id-card-line" xmlns="http://www.w3.org/2000/svg"><path d="M3 6H21V18H3V6ZM2 4C1.44772 4 1 4.44772 1 5V19C1 19.5523 1.44772 20 2 20H22C22.5523 20 23 19.5523 23 19V5C23 4.44772 22.5523 4 22 4H2ZM13 8H19V10H13V8ZM18 12H13V14H18V12ZM10.5 10C10.5 11.3807 9.38071 12.5 8 12.5C6.61929 12.5 5.5 11.3807 5.5 10C5.5 8.61929 6.61929 7.5 8 7.5C9.38071 7.5 10.5 8.61929 10.5 10ZM8 13.5C6.067 13.5 4.5 15.067 4.5 17H11.5C11.5 15.067 9.933 13.5 8 13.5Z"/></symbol><symbol viewBox="0 0 32 33" id="mail32px" xmlns="http://www.w3.org/2000/svg"><path d="M5.33317 27.1666C4.59984 27.1666 3.97184 26.9053 3.44917 26.3826C2.92651 25.8599 2.66562 25.2324 2.66651 24.4999V8.49992C2.66651 7.76659 2.92784 7.13859 3.45051 6.61592C3.97317 6.09325 4.60073 5.83237 5.33317 5.83325H26.6665C27.3998 5.83325 28.0278 6.09459 28.5505 6.61725C29.0732 7.13992 29.3341 7.76748 29.3332 8.49992V24.4999C29.3332 25.2333 29.0718 25.8613 28.5492 26.3839C28.0265 26.9066 27.399 27.1675 26.6665 27.1666H5.33317ZM15.9998 17.8333L5.33317 11.1666V24.4999H26.6665V11.1666L15.9998 17.8333ZM15.9998 15.1666L26.6665 8.49992H5.33317L15.9998 15.1666ZM5.33317 11.1666V8.49992V24.4999V11.1666Z"/></symbol><symbol viewBox="0 0 32 32" id="map32px" xmlns="http://www.w3.org/2000/svg"><path d="M15.9998 8.66675C16.8839 8.66675 17.7317 9.01794 18.3569 9.64306C18.982 10.2682 19.3332 11.116 19.3332 12.0001C19.3332 12.4378 19.247 12.8713 19.0794 13.2757C18.9119 13.6801 18.6664 14.0476 18.3569 14.3571C18.0473 14.6666 17.6799 14.9122 17.2754 15.0797C16.871 15.2472 16.4376 15.3334 15.9998 15.3334C15.1158 15.3334 14.2679 14.9822 13.6428 14.3571C13.0177 13.732 12.6665 12.8841 12.6665 12.0001C12.6665 11.116 13.0177 10.2682 13.6428 9.64306C14.2679 9.01794 15.1158 8.66675 15.9998 8.66675ZM15.9998 2.66675C18.4752 2.66675 20.8492 3.65008 22.5995 5.40042C24.3498 7.15076 25.3332 9.52473 25.3332 12.0001C25.3332 19.0001 15.9998 29.3334 15.9998 29.3334C15.9998 29.3334 6.6665 19.0001 6.6665 12.0001C6.6665 9.52473 7.64983 7.15076 9.40017 5.40042C11.1505 3.65008 13.5245 2.66675 15.9998 2.66675ZM15.9998 5.33341C14.2317 5.33341 12.536 6.03579 11.2858 7.28604C10.0355 8.53628 9.33317 10.232 9.33317 12.0001C9.33317 13.3334 9.33317 16.0001 15.9998 24.9467C22.6665 16.0001 22.6665 13.3334 22.6665 12.0001C22.6665 10.232 21.9641 8.53628 20.7139 7.28604C19.4636 6.03579 17.7679 5.33341 15.9998 5.33341Z"/></symbol><symbol viewBox="0 0 24 24" id="menu" xmlns="http://www.w3.org/2000/svg"><path d="M3 4H21V6H3V4ZM9 11H21V13H9V11ZM3 18H21V20H3V18Z"/></symbol><symbol viewBox="0 0 32 32" id="phone32px" xmlns="http://www.w3.org/2000/svg"><path d="M21.3332 1.33325H10.6665C8.45317 1.33325 6.6665 3.11992 6.6665 5.33325V26.6666C6.6665 28.8799 8.45317 30.6666 10.6665 30.6666H21.3332C23.5465 30.6666 25.3332 28.8799 25.3332 26.6666V5.33325C25.3332 3.11992 23.5465 1.33325 21.3332 1.33325ZM22.6665 23.9999H9.33317V5.33325H22.6665V23.9999ZM18.6665 27.9999H13.3332V26.6666H18.6665V27.9999Z"/></symbol><symbol viewBox="0 0 24 24" id="search" xmlns="http://www.w3.org/2000/svg"><path d="M18.5 18.5L22 22M21 11.5C21 6.25329 16.7467 2 11.5 2C6.25329 2 2 6.25329 2 11.5C2 16.7467 6.25329 21 11.5 21C16.7467 21 21 16.7467 21 11.5Z" stroke-width="1.5" stroke-linecap="round" stroke-linejoin="round"/></symbol><symbol viewBox="0 0 24 24" id="search-line" xmlns="http://www.w3.org/2000/svg"><path d="M18.031 16.6168L22.3137 20.8995L20.8995 22.3137L16.6168 18.031C15.0769 19.263 13.124 20 11 20C6.032 20 2 15.968 2 11C2 6.032 6.032 2 11 2C15.968 2 20 6.032 20 11C20 13.124 19.263 15.0769 18.031 16.6168ZM16.0247 15.8748C17.2475 14.6146 18 12.8956 18 11C18 7.1325 14.8675 4 11 4C7.1325 4 4 7.1325 4 11C4 14.8675 7.1325 18 11 18C12.8956 18 14.6146 17.2475 15.8748 16.0247L16.0247 15.8748Z"/></symbol><symbol viewBox="0 0 4 24" id="swiper-pagination-bullet" xmlns="http://www.w3.org/2000/svg"><rect width="4" height="24"/></symbol><symbol viewBox="0 0 4 40" id="swiper-pagination-bullet-active" xmlns="http://www.w3.org/2000/svg"><rect width="4" height="40"/></symbol><symbol viewBox="0 0 24 24" id="user" xmlns="http://www.w3.org/2000/svg"><path d="M18.5588 19.5488C17.5654 16.8918 15.0036 15 12 15C8.99638 15 6.4346 16.8918 5.44117 19.5488M18.5588 19.5488C20.6672 17.7154 22 15.0134 22 12C22 6.47715 17.5228 2 12 2C6.47715 2 2 6.47715 2 12C2 15.0134 3.33285 17.7154 5.44117 19.5488M18.5588 19.5488C16.8031 21.0756 14.5095 22 12 22C9.49052 22 7.19694 21.0756 5.44117 19.5488M15 9C15 10.6569 13.6569 12 12 12C10.3431 12 9 10.6569 9 9C9 7.34315 10.3431 6 12 6C13.6569 6 15 7.34315 15 9Z" stroke-width="1.5" stroke-linejoin="round"/></symbol><symbol viewBox="0 0 24 24" id="user-star-line" xmlns="http://www.w3.org/2000/svg"><path d="M12 14V16C8.68629 16 6 18.6863 6 22H4C4 17.5817 7.58172 14 12 14ZM12 13C8.685 13 6 10.315 6 7C6 3.685 8.685 1 12 1C15.315 1 18 3.685 18 7C18 10.315 15.315 13 12 13ZM12 11C14.21 11 16 9.21 16 7C16 4.79 14.21 3 12 3C9.79 3 8 4.79 8 7C8 9.21 9.79 11 12 11ZM18 21.5L15.0611 23.0451L15.6224 19.7725L13.2447 17.4549L16.5305 16.9775L18 14L19.4695 16.9775L22.7553 17.4549L20.3776 19.7725L20.9389 23.0451L18 21.5Z"/></symbol><symbol viewBox="0 0 22 20" id="view" xmlns="http://www.w3.org/2000/svg"><path d="M20.6098 9.7875C19.8533 7.88603 18.5399 6.24164 16.8321 5.05755C15.1243 3.87347 13.0968 3.20161 11.0003 3.125C8.90381 3.20161 6.87635 3.87347 5.16852 5.05755C3.4607 6.24164 2.14737 7.88603 1.39086 9.7875C1.33977 9.92482 1.33977 10.0752 1.39086 10.2125C2.14737 12.114 3.4607 13.7584 5.16852 14.9424C6.87635 16.1265 8.90381 16.7984 11.0003 16.875C13.0968 16.7984 15.1243 16.1265 16.8321 14.9424C18.5399 13.7584 19.8533 12.114 20.6098 10.2125C20.6609 10.0752 20.6609 9.92482 20.6098 9.7875ZM11.0003 15.625C7.59134 15.625 3.9894 13.1687 2.6837 10C3.9894 6.83125 7.59134 4.375 11.0003 4.375C14.4093 4.375 18.0112 6.83125 19.3169 10C18.0112 13.1687 14.4093 15.625 11.0003 15.625Z"/><path d="M11.0003 6.25C10.2371 6.25 9.49091 6.46993 8.85627 6.88199C8.22162 7.29404 7.72698 7.87971 7.43488 8.56494C7.14279 9.25016 7.06636 10.0042 7.21527 10.7316C7.36418 11.459 7.73173 12.1272 8.27146 12.6517C8.81118 13.1761 9.49883 13.5333 10.2474 13.6779C10.9961 13.8226 11.772 13.7484 12.4772 13.4645C13.1824 13.1807 13.7851 12.7001 14.2092 12.0834C14.6332 11.4667 14.8596 10.7417 14.8596 10C14.8596 9.00544 14.453 8.05161 13.7292 7.34835C13.0055 6.64509 12.0239 6.25 11.0003 6.25ZM11.0003 12.5C10.4915 12.5 9.99406 12.3534 9.57096 12.0787C9.14786 11.804 8.8181 11.4135 8.62337 10.9567C8.42864 10.4999 8.37769 9.99723 8.47696 9.51227C8.57623 9.02732 8.82127 8.58186 9.18108 8.23223C9.5409 7.8826 9.99933 7.6445 10.4984 7.54804C10.9975 7.45157 11.5148 7.50108 11.9849 7.6903C12.455 7.87952 12.8569 8.19995 13.1396 8.61107C13.4223 9.0222 13.5732 9.50555 13.5732 10C13.5732 10.663 13.3021 11.2989 12.8196 11.7678C12.3371 12.2366 11.6827 12.5 11.0003 12.5Z"/></symbol><symbol id="website" enable-background="new 0 0 497 497" viewBox="0 0 497 497" xmlns="http://www.w3.org/2000/svg"><g><path d="m497 128.5v312c0 11.046-8.954 20-20 20h-457c-11.046 0-20-8.954-20-20v-312z"/><g><path d="m290.498 294.5c0-23.196-18.804-42-42-42-7.031 0-13.659 1.728-19.482 4.782-13.386 7.021-19.327 21.053-19.327 37.218 0 23.196 15.613 36.457 38.809 36.457 16.214 0 30.282-3.645 37.282-17.099 3.014-5.792 4.718-12.376 4.718-19.358z"/><path d="m286.468 312.47c-6.73 14.21-21.2 24.03-37.97 24.03-23.2 0-42-18.8-42-42 0-16.77 9.82-31.24 24.03-37.97-2.59 5.45-4.03 11.54-4.03 17.97 0 23.2 18.8 42 42 42 6.43 0 12.52-1.44 17.97-4.03z"/></g><g><path d="m429.496 294.5c0-23.196-18.804-42-42-42-7.031 0-13.659 1.728-19.482 4.782-13.386 7.021-19.327 21.053-19.327 37.218 0 23.196 15.613 36.457 38.809 36.457 16.214 0 30.282-3.645 37.282-17.099 3.014-5.792 4.718-12.376 4.718-19.358z"/><path d="m425.466 312.47c-6.73 14.21-21.2 24.03-37.97 24.03-23.2 0-42-18.8-42-42 0-16.77 9.82-31.24 24.03-37.97-2.59 5.45-4.03 11.54-4.03 17.97 0 23.2 18.8 42 42 42 6.43 0 12.52-1.44 17.97-4.03z"/></g><path d="m497 148.5v-20l-276.011-12.798-220.989 12.798v20 292c0 11.046 8.954 20 20 20h15c-8.28 0-15-6.72-15-15v-291c0-3.314 2.686-6 6-6z"/><g><path d="m497 56.5v72.5h-497v-72.5c0-11.046 8.954-20 20-20h457c11.046 0 20 8.954 20 20z"/><g><path d="m227.758 108.5c-8.255 0-14.947-6.716-14.947-15s6.692-15 14.947-15h208.315c8.255 0 14.947 6.716 14.947 15s-6.692 15-14.947 15z"/><ellipse cx="160.869" cy="93.5" rx="14.947" ry="15"/><path d="m171.361 104.184 12.874-12.869-13.139 1.179z"/><path d="m150.592 82.608 12.562-12.516-2.693 10.408z"/><ellipse cx="98.034" cy="93.5" rx="14.947" ry="15"/><path d="m108.553 104.157 12.382-12.499-12.674.836z"/><path d="m87.757 82.608 12.371-12.459-2.502 10.351z"/><ellipse cx="32.947" cy="93.5" rx="14.947" ry="15"/><path d="m43.769 103.846 12.721-13.186-13.139 1.381z"/><path d="m22.67 82.608 11.622-12.038-1.753 9.93z"/></g><ellipse cx="173.849" cy="80.5" rx="14.947" ry="15"/><path d="m217.514 82.577 12.971-12.991-3.025 14.276z"/><path d="m446.83 103.915 13.149-13.179-10.185 3.381z"/><ellipse cx="110.946" cy="80.5" rx="14.947" ry="15"/><ellipse cx="45.495" cy="80.5" rx="14.947" ry="15"/><path d="m240.737 95.5c-8.255 0-14.947-6.716-14.947-15s6.692-15 14.947-15h208.315c8.255 0 14.947 6.716 14.947 15s-6.692 15-14.947 15z"/></g><path d="m135.893 215 226.628 2c5.523 0 10-4.477 10-10l3.479-7v-30c0-5.523-4.477-10-10-10h-224l-6.107 5c-5.523 0-10 4.477-10 10v30c0 5.523 4.477 10 10 10z"/><path d="m376 200v10c0 5.523-4.477 10-10 10h-234c-5.523 0-10-4.477-10-10v-40c0-5.523 4.477-10 10-10h10v33c0 3.866 3.134 7 7 7z"/><g><path d="m151.5 294.5c0-23.196-18.804-42-42-42-7.031 0-13.659 1.728-19.482 4.782-13.386 7.021-19.327 21.053-19.327 37.218 0 23.196 15.613 36.457 38.809 36.457 16.214 0 30.282-3.645 37.282-17.099 3.014-5.792 4.718-12.376 4.718-19.358z"/><path d="m147.47 312.47c-6.73 14.21-21.2 24.03-37.97 24.03-23.2 0-42-18.8-42-42 0-16.77 9.82-31.24 24.03-37.97-2.59 5.45-4.03 11.54-4.03 17.97 0 23.2 18.8 42 42 42 6.43 0 12.52-1.44 17.97-4.03z"/></g><g><g><path d="m149.5 374h-70c-4.142 0-7.5-3.358-7.5-7.5s3.358-7.5 7.5-7.5h70c4.142 0 7.5 3.358 7.5 7.5s-3.358 7.5-7.5 7.5z"/></g><g><path d="m149.5 404h-80c-4.142 0-7.5-3.358-7.5-7.5s3.358-7.5 7.5-7.5h80c4.142 0 7.5 3.358 7.5 7.5s-3.358 7.5-7.5 7.5z"/></g><g><path d="m149.5 434h-80c-4.142 0-7.5-3.358-7.5-7.5s3.358-7.5 7.5-7.5h80c4.142 0 7.5 3.358 7.5 7.5s-3.358 7.5-7.5 7.5z"/></g></g><g><g><path d="m288.5 374h-70c-4.142 0-7.5-3.358-7.5-7.5s3.358-7.5 7.5-7.5h70c4.143 0 7.5 3.358 7.5 7.5s-3.357 7.5-7.5 7.5z"/></g><g><path d="m288.5 404h-80c-4.142 0-7.5-3.358-7.5-7.5s3.358-7.5 7.5-7.5h80c4.143 0 7.5 3.358 7.5 7.5s-3.357 7.5-7.5 7.5z"/></g><g><path d="m288.5 434h-80c-4.142 0-7.5-3.358-7.5-7.5s3.358-7.5 7.5-7.5h80c4.143 0 7.5 3.358 7.5 7.5s-3.357 7.5-7.5 7.5z"/></g></g><g><g><path d="m427.5 374h-70c-4.143 0-7.5-3.358-7.5-7.5s3.357-7.5 7.5-7.5h70c4.143 0 7.5 3.358 7.5 7.5s-3.357 7.5-7.5 7.5z"/></g><g><path d="m427.5 404h-80c-4.143 0-7.5-3.358-7.5-7.5s3.357-7.5 7.5-7.5h80c4.143 0 7.5 3.358 7.5 7.5s-3.357 7.5-7.5 7.5z"/></g><g><path d="m427.5 434h-80c-4.143 0-7.5-3.358-7.5-7.5s3.357-7.5 7.5-7.5h80c4.143 0 7.5 3.358 7.5 7.5s-3.357 7.5-7.5 7.5z"/></g></g></g></symbol></svg>