<?xml version="1.0" encoding="utf-8"?><svg viewBox="0 0 512 512" xmlns="http://www.w3.org/2000/svg" xmlns:xlink="http://www.w3.org/1999/xlink"><style>:root>svg{display:none}:root>svg:target{display:block}</style><svg fill="none" viewBox="0 0 36 35" id="agreement-blue" xmlns="http://www.w3.org/2000/svg"><path d="M29.666 5.833v17.5h-17.5v-17.5h17.5Zm0-2.916h-17.5A2.925 2.925 0 0 0 9.25 5.833v17.5a2.925 2.925 0 0 0 2.916 2.917h17.5a2.925 2.925 0 0 0 2.917-2.917v-17.5a2.925 2.925 0 0 0-2.916-2.916Zm-10.98 17.5-5.061-5.105 2.041-2.056 3.02 3.034 7.48-7.54 2.042 2.056-9.523 9.61ZM6.332 8.75H3.416v20.417a2.925 2.925 0 0 0 2.917 2.916H26.75v-2.916H6.333V8.75Z" fill="#4F8FF0"/></svg><svg fill="none" viewBox="0 0 36 35" id="agreement-white" xmlns="http://www.w3.org/2000/svg"><path d="M29.666 5.833v17.5h-17.5v-17.5h17.5Zm0-2.916h-17.5A2.925 2.925 0 0 0 9.25 5.833v17.5a2.925 2.925 0 0 0 2.916 2.917h17.5a2.925 2.925 0 0 0 2.917-2.917v-17.5a2.925 2.925 0 0 0-2.916-2.916Zm-10.98 17.5-5.061-5.105 2.041-2.056 3.02 3.034 7.48-7.54 2.042 2.056-9.523 9.61ZM6.332 8.75H3.416v20.417a2.925 2.925 0 0 0 2.917 2.916H26.75v-2.916H6.333V8.75Z" fill="#fff"/></svg><svg fill="none" viewBox="0 0 21 20" id="arrow-left" xmlns="http://www.w3.org/2000/svg"><path d="M14.306 18.333 5.972 10l8.334-8.333 1.479 1.479L8.93 10l6.854 6.854-1.48 1.48Z" fill="#E6E6E6"/></svg><svg fill="none" viewBox="0 0 21 21" id="arrow-left-blue" xmlns="http://www.w3.org/2000/svg"><path d="M14.306 18.833 5.972 10.5l8.334-8.333 1.479 1.479L8.93 10.5l6.854 6.854-1.48 1.48Z" fill="#4F8FF0"/></svg><svg fill="none" viewBox="0 0 20 20" id="arrow-right" xmlns="http://www.w3.org/2000/svg"><path d="m6.687 18.333-1.479-1.479L12.062 10 5.208 3.146l1.48-1.48L15.02 10l-8.334 8.333Z" fill="#E6E6E6"/></svg><svg fill="none" viewBox="0 0 20 21" id="arrow-right-blue" xmlns="http://www.w3.org/2000/svg"><path d="m6.687 18.833-1.479-1.479 6.854-6.854-6.854-6.854 1.48-1.48L15.02 10.5l-8.334 8.333Z" fill="#4F8FF0"/></svg><svg fill="none" viewBox="0 0 24 24" id="close" xmlns="http://www.w3.org/2000/svg"><path d="M6.4 19 5 17.6l5.6-5.6L5 6.4 6.4 5l5.6 5.6L17.6 5 19 6.4 13.4 12l5.6 5.6-1.4 1.4-5.6-5.6L6.4 19Z" fill="#fff"/></svg><svg fill="none" viewBox="0 0 24 24" id="close-icon" xmlns="http://www.w3.org/2000/svg"><path d="M6.4 19 5 17.6l5.6-5.6L5 6.4 6.4 5l5.6 5.6L17.6 5 19 6.4 13.4 12l5.6 5.6-1.4 1.4-5.6-5.6L6.4 19Z" fill="#fff"/></svg><svg fill="none" viewBox="0 0 55 56" id="feather" xmlns="http://www.w3.org/2000/svg"><path d="m50.563 2.648-11.01 3.203 4.458-3.018c-2.815.636-6.37 1.88-10.84 3.888l-7.293 7.604 2.589-5.312c-2.503 1.392-5.157 3.217-7.713 5.355l-1.698 6.907-.365-5.113c-2.524 2.32-4.898 4.899-6.864 7.616-2.066 2.847-3.68 5.855-4.49 8.852l-3.02-2.02a14.592 14.592 0 0 0 2.48 6.79l-3.611-1.107c.82 2.524 2.162 4.157 4.431 5.479-1.27 3.577-1.867 7.315-2.507 11.043l1.977.333c2.292-22.85 18.469-37.416 33.089-43.87l.74 1.867C27.845 17 17.683 26.883 12.365 41.127c1.944.01 3.846-.226 5.608-.677l.526-6.542 1.407 5.962c1.171-.43 2.245-.945 3.201-1.547l-2.223-4.673 3.523 3.739c.86-.688 1.569-1.461 2.106-2.31 3.265-5.102 6.681-10.173 13.406-14.416l-4.91-1.74 7.531.225c1.225-.623 2.514-1.385 3.491-2.105l-5.339-.43 8.025-1.89a24.013 24.013 0 0 0 1.73-1.934c1.858-2.357 3.114-4.81 2.814-7.041a3.649 3.649 0 0 0-1.891-2.754 5.84 5.84 0 0 0-.806-.346Z" fill="#222" opacity=".1"/></svg><svg fill="none" viewBox="0 0 32 33" id="footer-email" xmlns="http://www.w3.org/2000/svg"><path d="M5.333 27.167a2.569 2.569 0 0 1-1.884-.784 2.563 2.563 0 0 1-.782-1.883v-16c0-.733.26-1.361.784-1.884a2.563 2.563 0 0 1 1.882-.783h21.334a2.57 2.57 0 0 1 1.883.784c.523.523.784 1.15.783 1.883v16c0 .733-.261 1.361-.784 1.884a2.563 2.563 0 0 1-1.883.783H5.334ZM16 17.833 5.333 11.167V24.5h21.334V11.167L16 17.833Zm0-2.666L26.666 8.5H5.334L16 15.167Zm-10.667-4V8.5v16-13.333Z" fill="#F8F5F4"/></svg><svg fill="none" viewBox="0 0 32 32" id="footer-map" xmlns="http://www.w3.org/2000/svg"><path d="M16 8.667a3.334 3.334 0 1 1 0 6.667 3.334 3.334 0 0 1 0-6.667Zm0-6A9.333 9.333 0 0 1 25.333 12c0 7-9.333 17.333-9.333 17.333S6.666 19 6.666 12A9.333 9.333 0 0 1 16 2.667Zm0 2.666A6.666 6.666 0 0 0 9.333 12c0 1.333 0 4 6.667 12.947C22.666 16 22.666 13.333 22.666 12A6.667 6.667 0 0 0 16 5.333Z" fill="#F8F5F4"/></svg><svg fill="none" viewBox="0 0 32 32" id="footer-phone" xmlns="http://www.w3.org/2000/svg"><path d="M21.333 1.333H10.667c-2.214 0-4 1.787-4 4v21.334c0 2.213 1.786 4 4 4h10.666c2.214 0 4-1.787 4-4V5.333c0-2.213-1.786-4-4-4ZM22.667 24H9.332V5.333h13.333V24Zm-4 4h-5.334v-1.333h5.333V28Z" fill="#F8F5F4"/></svg><svg fill="none" viewBox="0 0 20 20" id="header-email" xmlns="http://www.w3.org/2000/svg"><path d="M3.333 16.667c-.458 0-.85-.164-1.177-.49A1.602 1.602 0 0 1 1.666 15V5c0-.458.164-.85.49-1.178.327-.326.72-.49 1.177-.489h13.334c.458 0 .85.164 1.177.49.327.327.49.72.49 1.177v10c0 .458-.164.85-.49 1.177-.328.327-.72.49-1.178.49H3.333ZM10 10.833 3.333 6.667V15h13.334V6.667L10 10.833Zm0-1.666L16.666 5H3.333L10 9.167Zm-6.667-2.5V5v10-8.333Z" fill="#4F8FF0"/></svg><svg fill="none" viewBox="0 0 20 20" id="header-phone" xmlns="http://www.w3.org/2000/svg"><path d="M13.333.833H6.666a2.497 2.497 0 0 0-2.5 2.5v13.334c0 1.383 1.117 2.5 2.5 2.5h6.667c1.383 0 2.5-1.117 2.5-2.5V3.333c0-1.383-1.117-2.5-2.5-2.5ZM14.166 15H5.833V3.333h8.333V15Zm-2.5 2.5H8.333v-.833h3.333v.833Z" fill="#4F8FF0"/></svg><svg fill="none" viewBox="0 0 24 25" id="heart" xmlns="http://www.w3.org/2000/svg"><path fill-rule="evenodd" clip-rule="evenodd" d="M12.692 7.584a1 1 0 0 1-1.384 0l-.693-.665A4.5 4.5 0 0 0 3 10.166c0 2.383 1.29 4.35 3.152 5.967 1.863 1.618 4.091 2.691 5.423 3.239.278.114.572.114.85 0 1.332-.548 3.56-1.62 5.423-3.239C19.71 14.517 21 12.55 21 10.167a4.5 4.5 0 0 0-7.615-3.248l-.693.665ZM12 5.476a6.5 6.5 0 0 0-11 4.69c0 6.369 6.97 9.886 9.814 11.055a3.096 3.096 0 0 0 2.372 0C16.03 20.051 23 16.535 23 10.167a6.5 6.5 0 0 0-11-4.69Z" fill="#141718"/></svg><svg fill="none" viewBox="0 0 24 24" id="heart-line" xmlns="http://www.w3.org/2000/svg"><path d="M12.001 4.529a5.998 5.998 0 0 1 8.242.228 6 6 0 0 1 .236 8.236l-8.48 8.492-8.478-8.492a6 6 0 0 1 8.48-8.464Zm6.826 1.641a3.998 3.998 0 0 0-5.49-.153l-1.335 1.198-1.336-1.197a4 4 0 0 0-5.686 5.605L12 18.654l7.02-7.03a4 4 0 0 0-.193-5.454Z" fill="#000"/></svg><svg fill="none" viewBox="0 0 24 24" id="id-card-line" xmlns="http://www.w3.org/2000/svg"><path d="M3 6h18v12H3V6ZM2 4a1 1 0 0 0-1 1v14a1 1 0 0 0 1 1h20a1 1 0 0 0 1-1V5a1 1 0 0 0-1-1H2Zm11 4h6v2h-6V8Zm5 4h-5v2h5v-2Zm-7.5-2a2.5 2.5 0 1 1-5 0 2.5 2.5 0 0 1 5 0ZM8 13.5A3.5 3.5 0 0 0 4.5 17h7A3.5 3.5 0 0 0 8 13.5Z" fill="#000"/></svg><svg fill="none" viewBox="0 0 32 33" id="mail32px" xmlns="http://www.w3.org/2000/svg"><path d="M5.333 27.167a2.569 2.569 0 0 1-1.884-.784 2.563 2.563 0 0 1-.782-1.883v-16c0-.733.26-1.361.784-1.884a2.563 2.563 0 0 1 1.882-.783h21.334a2.57 2.57 0 0 1 1.883.784c.523.523.784 1.15.783 1.883v16c0 .733-.261 1.361-.784 1.884a2.563 2.563 0 0 1-1.883.783H5.334ZM16 17.833 5.333 11.167V24.5h21.334V11.167L16 17.833Zm0-2.666L26.666 8.5H5.334L16 15.167Zm-10.667-4V8.5v16-13.333Z" fill="#F8F5F4"/></svg><svg fill="none" viewBox="0 0 32 32" id="map32px" xmlns="http://www.w3.org/2000/svg"><path d="M16 8.667a3.334 3.334 0 1 1 0 6.667 3.334 3.334 0 0 1 0-6.667Zm0-6A9.333 9.333 0 0 1 25.333 12c0 7-9.333 17.333-9.333 17.333S6.666 19 6.666 12A9.333 9.333 0 0 1 16 2.667Zm0 2.666A6.666 6.666 0 0 0 9.333 12c0 1.333 0 4 6.667 12.947C22.666 16 22.666 13.333 22.666 12A6.667 6.667 0 0 0 16 5.333Z" fill="#F8F5F4"/></svg><svg fill="none" viewBox="0 0 24 24" id="menu" xmlns="http://www.w3.org/2000/svg"><path d="M3 4h18v2H3V4Zm6 7h12v2H9v-2Zm-6 7h18v2H3v-2Z" fill="#fff"/></svg><svg fill="none" viewBox="0 0 32 32" id="phone32px" xmlns="http://www.w3.org/2000/svg"><path d="M21.333 1.333H10.667c-2.214 0-4 1.787-4 4v21.334c0 2.213 1.786 4 4 4h10.666c2.214 0 4-1.787 4-4V5.333c0-2.213-1.786-4-4-4ZM22.667 24H9.332V5.333h13.333V24Zm-4 4h-5.334v-1.333h5.333V28Z" fill="#F8F5F4"/></svg><svg fill="none" viewBox="0 0 24 24" id="search" xmlns="http://www.w3.org/2000/svg"><path d="M18.5 18.5 22 22m-1-10.5a9.5 9.5 0 1 0-19 0 9.5 9.5 0 0 0 19 0Z" stroke="#141718" stroke-width="1.5" stroke-linecap="round" stroke-linejoin="round"/></svg><svg fill="none" viewBox="0 0 24 24" id="search-line" xmlns="http://www.w3.org/2000/svg"><path d="m18.031 16.617 4.283 4.282-1.415 1.415-4.282-4.283A8.96 8.96 0 0 1 11 20c-4.968 0-9-4.032-9-9s4.032-9 9-9 9 4.032 9 9a8.96 8.96 0 0 1-1.969 5.617Zm-2.006-.742A6.977 6.977 0 0 0 18 11c0-3.867-3.133-7-7-7s-7 3.133-7 7 3.133 7 7 7a6.977 6.977 0 0 0 4.875-1.975l.15-.15Z" fill="#000"/></svg><svg fill="none" viewBox="0 0 4 24" id="swiper-pagination-bullet" xmlns="http://www.w3.org/2000/svg"><path fill="#E6E6E6" d="M0 0h4v24H0z"/></svg><svg fill="none" viewBox="0 0 4 40" id="swiper-pagination-bullet-active" xmlns="http://www.w3.org/2000/svg"><path fill="#4F8FF0" d="M0 0h4v40H0z"/></svg><svg fill="none" viewBox="0 0 24 24" id="user" xmlns="http://www.w3.org/2000/svg"><path d="M18.559 19.549a7.003 7.003 0 0 0-13.118 0m13.118 0A9.976 9.976 0 0 0 22 12c0-5.523-4.477-10-10-10S2 6.477 2 12a9.977 9.977 0 0 0 3.441 7.549m13.118 0A9.961 9.961 0 0 1 12 22a9.961 9.961 0 0 1-6.559-2.451M15 9a3 3 0 1 1-6 0 3 3 0 0 1 6 0Z" stroke="#141718" stroke-width="1.5" stroke-linejoin="round"/></svg><svg fill="none" viewBox="0 0 24 24" id="user-star-line" xmlns="http://www.w3.org/2000/svg"><path d="M12 14v2a6 6 0 0 0-6 6H4a8 8 0 0 1 8-8Zm0-1c-3.315 0-6-2.685-6-6s2.685-6 6-6 6 2.685 6 6-2.685 6-6 6Zm0-2c2.21 0 4-1.79 4-4s-1.79-4-4-4-4 1.79-4 4 1.79 4 4 4Zm6 10.5-2.939 1.545.561-3.273-2.377-2.317 3.286-.477L18 14l1.47 2.977 3.285.478-2.377 2.318.56 3.272L18 21.5Z" fill="#000"/></svg><svg fill="none" viewBox="0 0 22 20" id="view" xmlns="http://www.w3.org/2000/svg"><path d="M20.61 9.787a10.479 10.479 0 0 0-3.778-4.73A10.941 10.941 0 0 0 11 3.126 10.941 10.941 0 0 0 5.17 5.058a10.479 10.479 0 0 0-3.778 4.73.608.608 0 0 0 0 .425 10.478 10.478 0 0 0 3.778 4.73A10.941 10.941 0 0 0 11 16.874a10.941 10.941 0 0 0 5.832-1.933 10.478 10.478 0 0 0 3.778-4.73.608.608 0 0 0 0-.425ZM11 15.625c-3.409 0-7.01-2.456-8.316-5.625C3.989 6.831 7.59 4.375 11 4.375c3.41 0 7.011 2.456 8.317 5.625-1.306 3.169-4.908 5.625-8.317 5.625Z" fill="#4F8FF0"/><path d="M11 6.25c-.763 0-1.51.22-2.144.632a3.775 3.775 0 0 0-1.421 1.683 3.652 3.652 0 0 0-.22 2.167 3.719 3.719 0 0 0 1.056 1.92c.54.524 1.228.881 1.976 1.026.75.145 1.525.07 2.23-.214a3.837 3.837 0 0 0 1.732-1.38c.424-.617.65-1.342.65-2.084 0-.995-.406-1.948-1.13-2.652A3.917 3.917 0 0 0 11 6.25Zm0 6.25a2.626 2.626 0 0 1-1.429-.421 2.517 2.517 0 0 1-.948-1.122 2.434 2.434 0 0 1-.146-1.445c.1-.485.344-.93.704-1.28s.818-.587 1.317-.684a2.642 2.642 0 0 1 1.487.142c.47.19.872.51 1.155.921.282.411.433.895.433 1.389 0 .663-.27 1.299-.753 1.768A2.612 2.612 0 0 1 11 12.5Z" fill="#4F8FF0"/></svg><svg viewBox="0 0 497 497" id="website" xmlns="http://www.w3.org/2000/svg"><path d="M497 128.5v312c0 11.046-8.954 20-20 20H20c-11.046 0-20-8.954-20-20v-312z" fill="#faf8f8"/><path d="M290.498 294.5c0-23.196-18.804-42-42-42a41.823 41.823 0 0 0-19.482 4.782c-13.386 7.021-19.327 21.053-19.327 37.218 0 23.196 15.613 36.457 38.809 36.457 16.214 0 30.282-3.645 37.282-17.099a41.814 41.814 0 0 0 4.718-19.358z" fill="#dc4955"/><path d="M286.468 312.47c-6.73 14.21-21.2 24.03-37.97 24.03-23.2 0-42-18.8-42-42 0-16.77 9.82-31.24 24.03-37.97-2.59 5.45-4.03 11.54-4.03 17.97 0 23.2 18.8 42 42 42 6.43 0 12.52-1.44 17.97-4.03z" fill="#d82f3c"/><path d="M429.496 294.5c0-23.196-18.804-42-42-42a41.823 41.823 0 0 0-19.482 4.782c-13.386 7.021-19.327 21.053-19.327 37.218 0 23.196 15.613 36.457 38.809 36.457 16.214 0 30.282-3.645 37.282-17.099a41.814 41.814 0 0 0 4.718-19.358z" fill="#b7e546"/><path d="M425.466 312.47c-6.73 14.21-21.2 24.03-37.97 24.03-23.2 0-42-18.8-42-42 0-16.77 9.82-31.24 24.03-37.97-2.59 5.45-4.03 11.54-4.03 17.97 0 23.2 18.8 42 42 42 6.43 0 12.52-1.44 17.97-4.03z" fill="#abd641"/><path d="M497 148.5v-20l-276.011-12.798L0 128.5v312c0 11.046 8.954 20 20 20h15c-8.28 0-15-6.72-15-15v-291a6 6 0 0 1 6-6z" fill="#f0e9e6"/><path d="M497 56.5V129H0V56.5c0-11.046 8.954-20 20-20h457c11.046 0 20 8.954 20 20z" fill="#5d748a"/><g fill="#3f597d"><path d="M227.758 108.5c-8.255 0-14.947-6.716-14.947-15s6.692-15 14.947-15h208.315c8.255 0 14.947 6.716 14.947 15s-6.692 15-14.947 15z"/><ellipse cx="160.869" cy="93.5" rx="14.947" ry="15"/><path d="m171.361 104.184 12.874-12.869-13.139 1.179zM150.592 82.608l12.562-12.516-2.693 10.408z"/><ellipse cx="98.034" cy="93.5" rx="14.947" ry="15"/><path d="m108.553 104.157 12.382-12.499-12.674.836zM87.757 82.608l12.371-12.459L97.626 80.5z"/><ellipse cx="32.947" cy="93.5" rx="14.947" ry="15"/><path d="M43.769 103.846 56.49 90.66l-13.139 1.381zM22.67 82.608 34.292 70.57l-1.753 9.93z"/></g><ellipse cx="173.849" cy="80.5" fill="#b7e546" rx="14.947" ry="15"/><path d="m217.514 82.577 12.971-12.991-3.025 14.276zM446.83 103.915l13.149-13.179-10.185 3.381z" fill="#3f597d"/><ellipse cx="110.946" cy="80.5" fill="#ffbf54" rx="14.947" ry="15"/><ellipse cx="45.495" cy="80.5" fill="#dc4955" rx="14.947" ry="15"/><path d="M240.737 95.5c-8.255 0-14.947-6.716-14.947-15s6.692-15 14.947-15h208.315c8.255 0 14.947 6.716 14.947 15s-6.692 15-14.947 15z" fill="#faf8f8"/><path d="m135.893 215 226.628 2c5.523 0 10-4.477 10-10l3.479-7v-30c0-5.523-4.477-10-10-10H142l-6.107 5c-5.523 0-10 4.477-10 10v30c0 5.523 4.477 10 10 10z" fill="#aad8de"/><path d="M376 200v10c0 5.523-4.477 10-10 10H132c-5.523 0-10-4.477-10-10v-40c0-5.523 4.477-10 10-10h10v33a7 7 0 0 0 7 7z" fill="#94ccd4"/><path d="M151.5 294.5c0-23.196-18.804-42-42-42a41.823 41.823 0 0 0-19.482 4.782c-13.386 7.021-19.327 21.053-19.327 37.218 0 23.196 15.613 36.457 38.809 36.457 16.214 0 30.282-3.645 37.282-17.099A41.814 41.814 0 0 0 151.5 294.5z" fill="#ffbf54"/><path d="M147.47 312.47c-6.73 14.21-21.2 24.03-37.97 24.03-23.2 0-42-18.8-42-42 0-16.77 9.82-31.24 24.03-37.97-2.59 5.45-4.03 11.54-4.03 17.97 0 23.2 18.8 42 42 42 6.43 0 12.52-1.44 17.97-4.03z" fill="#ffa442"/><path d="M149.5 374h-70a7.5 7.5 0 0 1 0-15h70a7.5 7.5 0 0 1 0 15zM149.5 404h-80a7.5 7.5 0 0 1 0-15h80a7.5 7.5 0 0 1 0 15zM149.5 434h-80a7.5 7.5 0 0 1 0-15h80a7.5 7.5 0 0 1 0 15zM288.5 374h-70a7.5 7.5 0 0 1 0-15h70c4.143 0 7.5 3.358 7.5 7.5s-3.357 7.5-7.5 7.5zM288.5 404h-80a7.5 7.5 0 0 1 0-15h80c4.143 0 7.5 3.358 7.5 7.5s-3.357 7.5-7.5 7.5zM288.5 434h-80a7.5 7.5 0 0 1 0-15h80c4.143 0 7.5 3.358 7.5 7.5s-3.357 7.5-7.5 7.5zM427.5 374h-70c-4.143 0-7.5-3.358-7.5-7.5s3.357-7.5 7.5-7.5h70c4.143 0 7.5 3.358 7.5 7.5s-3.357 7.5-7.5 7.5zM427.5 404h-80c-4.143 0-7.5-3.358-7.5-7.5s3.357-7.5 7.5-7.5h80c4.143 0 7.5 3.358 7.5 7.5s-3.357 7.5-7.5 7.5zM427.5 434h-80c-4.143 0-7.5-3.358-7.5-7.5s3.357-7.5 7.5-7.5h80c4.143 0 7.5 3.358 7.5 7.5s-3.357 7.5-7.5 7.5z" fill="#f0e9e6"/></svg></svg>